# xmcd
#
# Track frame offsets:
# 150
# 18082
# 33651
# 56434
# 70865
# 86560
# 106992
# 126662
# 148270
# 167803
# 188186
# 208355
# 223824
#
# Disc length: 3110 seconds
#
#
# Revision: 0
# Processed by: cddbd v1.5PL3 Copyright (c) Steve Scherf et al.
# Submitted via: FreeRIP 2.53 
#
DISCID=cb0c240d
DTITLE=SheDaisy - Knock On The Sky
DYEAR=1900
DGENRE=
TTITLE0=Maine All Mine
TTITLE1=I'm Lit
TTITLE2=Man Goin' Down
TTITLE3=Get Over Yourself
TTITLE4=Rush
TTITLE5=I Wish I Were The Rain
TTITLE6=Repent
TTITLE7=Everybody Wants You
TTITLE8=Now
TTITLE9=All Over You
TTITLE10=The First To Let Go
TTITLE11=Turn Me On
TTITLE12=Keep Me
EXTD=
EXTT0=
EXTT1=
EXTT2=
EXTT3=
EXTT4=
EXTT5=
EXTT6=
EXTT7=
EXTT8=
EXTT9=
EXTT10=
EXTT11=
EXTT12=
PLAYORDER=
